<svg xmlns="http://www.w3.org/2000/svg" width="608" height="192" viewBox="0 0 608 192" shape-rendering="crispEdges"><rect x="10" y="19" width="12" height="12" fill="#5a463d"/><rect x="12" y="20" width="8" height="10" fill="#d98586"/><rect x="15" y="20" width="2" height="2" fill="#f3dfcf"/><rect x="7" y="21" width="3" height="8" fill="#d98586"/><rect x="22" y="21" width="3" height="8" fill="#d98586"/><rect x="11" y="31" width="10" height="4" fill="#b86669"/><rect x="11" y="35" width="4" height="5" fill="#b86669"/><rect x="18" y="35" width="4" height="5" fill="#b86669"/><rect x="42" y="20" width="12" height="12" fill="#5a463d"/><rect x="44" y="21" width="8" height="10" fill="#d98586"/><rect x="47" y="21" width="2" height="2" fill="#f3dfcf"/><rect x="39" y="22" width="3" height="8" fill="#d98586"/><rect x="54" y="22" width="3" height="8" fill="#d98586"/><rect x="43" y="32" width="10" height="4" fill="#b86669"/><rect x="43" y="36" width="4" height="5" fill="#b86669"/><rect x="50" y="36" width="4" height="5" fill="#b86669"/><rect x="74" y="19" width="12" height="12" fill="#5a463d"/><rect x="76" y="20" width="8" height="10" fill="#d98586"/><rect x="79" y="20" width="2" height="2" fill="#f3dfcf"/><rect x="71" y="21" width="3" height="8" fill="#d98586"/><rect x="86" y="21" width="3" height="8" fill="#d98586"/><rect x="75" y="31" width="10" height="4" fill="#b86669"/><rect x="74" y="35" width="4" height="5" fill="#b86669"/><rect x="83" y="35" width="4" height="5" fill="#b86669"/><rect x="106" y="20" width="12" height="12" fill="#5a463d"/><rect x="108" y="21" width="8" height="10" fill="#d98586"/><rect x="111" y="21" width="2" height="2" fill="#f3dfcf"/><rect x="103" y="22" width="3" height="8" fill="#d98586"/><rect x="118" y="22" width="3" height="8" fill="#d98586"/><rect x="107" y="32" width="10" height="4" fill="#b86669"/><rect x="107" y="36" width="4" height="5" fill="#b86669"/><rect x="114" y="36" width="4" height="5" fill="#b86669"/><rect x="138" y="19" width="12" height="12" fill="#5a463d"/><rect x="140" y="20" width="8" height="10" fill="#d98586"/><rect x="143" y="20" width="2" height="2" fill="#f3dfcf"/><rect x="135" y="21" width="3" height="8" fill="#d98586"/><rect x="150" y="21" width="3" height="8" fill="#d98586"/><rect x="139" y="31" width="10" height="4" fill="#b86669"/><rect x="140" y="35" width="4" height="5" fill="#b86669"/><rect x="145" y="35" width="4" height="5" fill="#b86669"/><rect x="170" y="20" width="12" height="12" fill="#5a463d"/><rect x="172" y="21" width="8" height="10" fill="#d98586"/><rect x="175" y="21" width="2" height="2" fill="#f3dfcf"/><rect x="167" y="22" width="3" height="8" fill="#d98586"/><rect x="182" y="22" width="3" height="8" fill="#d98586"/><rect x="171" y="32" width="10" height="4" fill="#b86669"/><rect x="171" y="36" width="4" height="5" fill="#b86669"/><rect x="178" y="36" width="4" height="5" fill="#b86669"/><rect x="202" y="24" width="12" height="12" fill="#5a463d"/><rect x="204" y="25" width="8" height="10" fill="#d98586"/><rect x="207" y="25" width="2" height="2" fill="#f3dfcf"/><rect x="199" y="26" width="3" height="8" fill="#d98586"/><rect x="214" y="26" width="3" height="8" fill="#d98586"/><rect x="202" y="34" width="12" height="5" fill="#b86669"/><rect x="199" y="37" width="7" height="3" fill="#b86669"/><rect x="210" y="37" width="7" height="3" fill="#b86669"/><rect x="234" y="25" width="12" height="12" fill="#5a463d"/><rect x="236" y="26" width="8" height="10" fill="#d98586"/><rect x="239" y="26" width="2" height="2" fill="#f3dfcf"/><rect x="231" y="27" width="3" height="8" fill="#d98586"/><rect x="246" y="27" width="3" height="8" fill="#d98586"/><rect x="234" y="34" width="12" height="5" fill="#b86669"/><rect x="231" y="37" width="7" height="3" fill="#b86669"/><rect x="242" y="37" width="7" height="3" fill="#b86669"/><rect x="266" y="19" width="12" height="12" fill="#5a463d"/><rect x="268" y="20" width="8" height="10" fill="#d98586"/><rect x="271" y="20" width="2" height="2" fill="#f3dfcf"/><rect x="262" y="21" width="4" height="7" fill="#d98586"/><rect x="278" y="20" width="4" height="7" fill="#d98586"/><rect x="280" y="14" width="3" height="7" fill="#b86669"/><rect x="267" y="31" width="10" height="4" fill="#b86669"/><rect x="267" y="35" width="4" height="5" fill="#b86669"/><rect x="274" y="35" width="4" height="5" fill="#b86669"/><rect x="298" y="20" width="12" height="12" fill="#5a463d"/><rect x="300" y="21" width="8" height="10" fill="#d98586"/><rect x="303" y="21" width="2" height="2" fill="#f3dfcf"/><rect x="294" y="22" width="4" height="7" fill="#d98586"/><rect x="310" y="21" width="4" height="7" fill="#d98586"/><rect x="312" y="15" width="3" height="7" fill="#b86669"/><rect x="299" y="32" width="10" height="4" fill="#b86669"/><rect x="299" y="36" width="4" height="5" fill="#b86669"/><rect x="306" y="36" width="4" height="5" fill="#b86669"/><rect x="330" y="19" width="12" height="12" fill="#5a463d"/><rect x="332" y="20" width="8" height="10" fill="#d98586"/><rect x="335" y="20" width="2" height="2" fill="#f3dfcf"/><rect x="326" y="21" width="4" height="7" fill="#d98586"/><rect x="342" y="20" width="4" height="7" fill="#d98586"/><rect x="344" y="14" width="3" height="7" fill="#b86669"/><rect x="331" y="31" width="10" height="4" fill="#b86669"/><rect x="331" y="35" width="4" height="5" fill="#b86669"/><rect x="338" y="35" width="4" height="5" fill="#b86669"/><rect x="362" y="20" width="12" height="12" fill="#5a463d"/><rect x="364" y="21" width="8" height="10" fill="#d98586"/><rect x="367" y="21" width="2" height="2" fill="#f3dfcf"/><rect x="358" y="22" width="4" height="7" fill="#d98586"/><rect x="374" y="21" width="4" height="7" fill="#d98586"/><rect x="376" y="15" width="3" height="7" fill="#b86669"/><rect x="363" y="32" width="10" height="4" fill="#b86669"/><rect x="363" y="36" width="4" height="5" fill="#b86669"/><rect x="370" y="36" width="4" height="5" fill="#b86669"/><rect x="394" y="19" width="12" height="12" fill="#5a463d"/><rect x="396" y="20" width="8" height="10" fill="#d98586"/><rect x="399" y="20" width="2" height="2" fill="#f3dfcf"/><rect x="392" y="22" width="6" height="4" fill="#d98586"/><rect x="402" y="22" width="6" height="4" fill="#d98586"/><rect x="395" y="31" width="10" height="4" fill="#b86669"/><rect x="395" y="35" width="4" height="5" fill="#b86669"/><rect x="402" y="35" width="4" height="5" fill="#b86669"/><rect x="426" y="20" width="12" height="12" fill="#5a463d"/><rect x="428" y="21" width="8" height="10" fill="#d98586"/><rect x="431" y="21" width="2" height="2" fill="#f3dfcf"/><rect x="424" y="23" width="6" height="4" fill="#d98586"/><rect x="434" y="23" width="6" height="4" fill="#d98586"/><rect x="427" y="32" width="10" height="4" fill="#b86669"/><rect x="427" y="36" width="4" height="5" fill="#b86669"/><rect x="434" y="36" width="4" height="5" fill="#b86669"/><rect x="458" y="19" width="12" height="12" fill="#5a463d"/><rect x="460" y="20" width="8" height="10" fill="#d98586"/><rect x="463" y="20" width="2" height="2" fill="#f3dfcf"/><rect x="456" y="22" width="6" height="4" fill="#d98586"/><rect x="466" y="22" width="6" height="4" fill="#d98586"/><rect x="459" y="31" width="10" height="4" fill="#b86669"/><rect x="459" y="35" width="4" height="5" fill="#b86669"/><rect x="466" y="35" width="4" height="5" fill="#b86669"/><rect x="490" y="19" width="12" height="12" fill="#5a463d"/><rect x="492" y="20" width="8" height="10" fill="#d98586"/><rect x="495" y="20" width="2" height="2" fill="#f3dfcf"/><rect x="486" y="14" width="4" height="9" fill="#d98586"/><rect x="502" y="14" width="4" height="9" fill="#d98586"/><rect x="491" y="31" width="10" height="4" fill="#b86669"/><rect x="491" y="35" width="4" height="5" fill="#b86669"/><rect x="498" y="35" width="4" height="5" fill="#b86669"/><rect x="522" y="17" width="12" height="12" fill="#5a463d"/><rect x="524" y="18" width="8" height="10" fill="#d98586"/><rect x="527" y="18" width="2" height="2" fill="#f3dfcf"/><rect x="518" y="12" width="4" height="9" fill="#d98586"/><rect x="534" y="12" width="4" height="9" fill="#d98586"/><rect x="523" y="29" width="10" height="4" fill="#b86669"/><rect x="523" y="33" width="4" height="5" fill="#b86669"/><rect x="530" y="33" width="4" height="5" fill="#b86669"/><rect x="554" y="19" width="12" height="12" fill="#5a463d"/><rect x="556" y="20" width="8" height="10" fill="#d98586"/><rect x="559" y="20" width="2" height="2" fill="#f3dfcf"/><rect x="550" y="14" width="4" height="9" fill="#d98586"/><rect x="566" y="14" width="4" height="9" fill="#d98586"/><rect x="555" y="31" width="10" height="4" fill="#b86669"/><rect x="555" y="35" width="4" height="5" fill="#b86669"/><rect x="562" y="35" width="4" height="5" fill="#b86669"/><rect x="586" y="16" width="12" height="12" fill="#5a463d"/><rect x="588" y="17" width="8" height="10" fill="#d98586"/><rect x="591" y="17" width="2" height="2" fill="#f3dfcf"/><rect x="582" y="11" width="4" height="9" fill="#d98586"/><rect x="598" y="11" width="4" height="9" fill="#d98586"/><rect x="587" y="28" width="10" height="4" fill="#b86669"/><rect x="587" y="32" width="4" height="5" fill="#b86669"/><rect x="594" y="32" width="4" height="5" fill="#b86669"/><rect x="10" y="67" width="12" height="12" fill="#5a463d"/><rect x="12" y="68" width="8" height="10" fill="#d98586"/><rect x="15" y="68" width="2" height="2" fill="#f3dfcf"/><rect x="7" y="69" width="3" height="8" fill="#d98586"/><rect x="22" y="69" width="3" height="8" fill="#d98586"/><rect x="11" y="79" width="10" height="4" fill="#b86669"/><rect x="11" y="83" width="4" height="5" fill="#b86669"/><rect x="18" y="83" width="4" height="5" fill="#b86669"/><rect x="42" y="68" width="12" height="12" fill="#5a463d"/><rect x="44" y="69" width="8" height="10" fill="#d98586"/><rect x="47" y="69" width="2" height="2" fill="#f3dfcf"/><rect x="39" y="70" width="3" height="8" fill="#d98586"/><rect x="54" y="70" width="3" height="8" fill="#d98586"/><rect x="43" y="80" width="10" height="4" fill="#b86669"/><rect x="43" y="84" width="4" height="5" fill="#b86669"/><rect x="50" y="84" width="4" height="5" fill="#b86669"/><rect x="74" y="67" width="12" height="12" fill="#5a463d"/><rect x="76" y="68" width="8" height="10" fill="#d98586"/><rect x="79" y="68" width="2" height="2" fill="#f3dfcf"/><rect x="71" y="69" width="3" height="8" fill="#d98586"/><rect x="86" y="69" width="3" height="8" fill="#d98586"/><rect x="75" y="79" width="10" height="4" fill="#b86669"/><rect x="74" y="83" width="4" height="5" fill="#b86669"/><rect x="83" y="83" width="4" height="5" fill="#b86669"/><rect x="106" y="68" width="12" height="12" fill="#5a463d"/><rect x="108" y="69" width="8" height="10" fill="#d98586"/><rect x="111" y="69" width="2" height="2" fill="#f3dfcf"/><rect x="103" y="70" width="3" height="8" fill="#d98586"/><rect x="118" y="70" width="3" height="8" fill="#d98586"/><rect x="107" y="80" width="10" height="4" fill="#b86669"/><rect x="107" y="84" width="4" height="5" fill="#b86669"/><rect x="114" y="84" width="4" height="5" fill="#b86669"/><rect x="138" y="67" width="12" height="12" fill="#5a463d"/><rect x="140" y="68" width="8" height="10" fill="#d98586"/><rect x="143" y="68" width="2" height="2" fill="#f3dfcf"/><rect x="135" y="69" width="3" height="8" fill="#d98586"/><rect x="150" y="69" width="3" height="8" fill="#d98586"/><rect x="139" y="79" width="10" height="4" fill="#b86669"/><rect x="140" y="83" width="4" height="5" fill="#b86669"/><rect x="145" y="83" width="4" height="5" fill="#b86669"/><rect x="170" y="68" width="12" height="12" fill="#5a463d"/><rect x="172" y="69" width="8" height="10" fill="#d98586"/><rect x="175" y="69" width="2" height="2" fill="#f3dfcf"/><rect x="167" y="70" width="3" height="8" fill="#d98586"/><rect x="182" y="70" width="3" height="8" fill="#d98586"/><rect x="171" y="80" width="10" height="4" fill="#b86669"/><rect x="171" y="84" width="4" height="5" fill="#b86669"/><rect x="178" y="84" width="4" height="5" fill="#b86669"/><rect x="202" y="72" width="12" height="12" fill="#5a463d"/><rect x="204" y="73" width="8" height="10" fill="#d98586"/><rect x="207" y="73" width="2" height="2" fill="#f3dfcf"/><rect x="199" y="74" width="3" height="8" fill="#d98586"/><rect x="214" y="74" width="3" height="8" fill="#d98586"/><rect x="202" y="82" width="12" height="5" fill="#b86669"/><rect x="199" y="85" width="7" height="3" fill="#b86669"/><rect x="210" y="85" width="7" height="3" fill="#b86669"/><rect x="234" y="73" width="12" height="12" fill="#5a463d"/><rect x="236" y="74" width="8" height="10" fill="#d98586"/><rect x="239" y="74" width="2" height="2" fill="#f3dfcf"/><rect x="231" y="75" width="3" height="8" fill="#d98586"/><rect x="246" y="75" width="3" height="8" fill="#d98586"/><rect x="234" y="82" width="12" height="5" fill="#b86669"/><rect x="231" y="85" width="7" height="3" fill="#b86669"/><rect x="242" y="85" width="7" height="3" fill="#b86669"/><rect x="266" y="67" width="12" height="12" fill="#5a463d"/><rect x="268" y="68" width="8" height="10" fill="#d98586"/><rect x="271" y="68" width="2" height="2" fill="#f3dfcf"/><rect x="262" y="68" width="4" height="7" fill="#d98586"/><rect x="261" y="62" width="3" height="7" fill="#b86669"/><rect x="278" y="69" width="4" height="7" fill="#d98586"/><rect x="267" y="79" width="10" height="4" fill="#b86669"/><rect x="267" y="83" width="4" height="5" fill="#b86669"/><rect x="274" y="83" width="4" height="5" fill="#b86669"/><rect x="298" y="68" width="12" height="12" fill="#5a463d"/><rect x="300" y="69" width="8" height="10" fill="#d98586"/><rect x="303" y="69" width="2" height="2" fill="#f3dfcf"/><rect x="294" y="69" width="4" height="7" fill="#d98586"/><rect x="293" y="63" width="3" height="7" fill="#b86669"/><rect x="310" y="70" width="4" height="7" fill="#d98586"/><rect x="299" y="80" width="10" height="4" fill="#b86669"/><rect x="299" y="84" width="4" height="5" fill="#b86669"/><rect x="306" y="84" width="4" height="5" fill="#b86669"/><rect x="330" y="67" width="12" height="12" fill="#5a463d"/><rect x="332" y="68" width="8" height="10" fill="#d98586"/><rect x="335" y="68" width="2" height="2" fill="#f3dfcf"/><rect x="326" y="68" width="4" height="7" fill="#d98586"/><rect x="325" y="62" width="3" height="7" fill="#b86669"/><rect x="342" y="69" width="4" height="7" fill="#d98586"/><rect x="331" y="79" width="10" height="4" fill="#b86669"/><rect x="331" y="83" width="4" height="5" fill="#b86669"/><rect x="338" y="83" width="4" height="5" fill="#b86669"/><rect x="362" y="68" width="12" height="12" fill="#5a463d"/><rect x="364" y="69" width="8" height="10" fill="#d98586"/><rect x="367" y="69" width="2" height="2" fill="#f3dfcf"/><rect x="358" y="69" width="4" height="7" fill="#d98586"/><rect x="357" y="63" width="3" height="7" fill="#b86669"/><rect x="374" y="70" width="4" height="7" fill="#d98586"/><rect x="363" y="80" width="10" height="4" fill="#b86669"/><rect x="363" y="84" width="4" height="5" fill="#b86669"/><rect x="370" y="84" width="4" height="5" fill="#b86669"/><rect x="394" y="67" width="12" height="12" fill="#5a463d"/><rect x="396" y="68" width="8" height="10" fill="#d98586"/><rect x="399" y="68" width="2" height="2" fill="#f3dfcf"/><rect x="392" y="70" width="6" height="4" fill="#d98586"/><rect x="402" y="70" width="6" height="4" fill="#d98586"/><rect x="395" y="79" width="10" height="4" fill="#b86669"/><rect x="395" y="83" width="4" height="5" fill="#b86669"/><rect x="402" y="83" width="4" height="5" fill="#b86669"/><rect x="426" y="68" width="12" height="12" fill="#5a463d"/><rect x="428" y="69" width="8" height="10" fill="#d98586"/><rect x="431" y="69" width="2" height="2" fill="#f3dfcf"/><rect x="424" y="71" width="6" height="4" fill="#d98586"/><rect x="434" y="71" width="6" height="4" fill="#d98586"/><rect x="427" y="80" width="10" height="4" fill="#b86669"/><rect x="427" y="84" width="4" height="5" fill="#b86669"/><rect x="434" y="84" width="4" height="5" fill="#b86669"/><rect x="458" y="67" width="12" height="12" fill="#5a463d"/><rect x="460" y="68" width="8" height="10" fill="#d98586"/><rect x="463" y="68" width="2" height="2" fill="#f3dfcf"/><rect x="456" y="70" width="6" height="4" fill="#d98586"/><rect x="466" y="70" width="6" height="4" fill="#d98586"/><rect x="459" y="79" width="10" height="4" fill="#b86669"/><rect x="459" y="83" width="4" height="5" fill="#b86669"/><rect x="466" y="83" width="4" height="5" fill="#b86669"/><rect x="490" y="67" width="12" height="12" fill="#5a463d"/><rect x="492" y="68" width="8" height="10" fill="#d98586"/><rect x="495" y="68" width="2" height="2" fill="#f3dfcf"/><rect x="486" y="62" width="4" height="9" fill="#d98586"/><rect x="502" y="62" width="4" height="9" fill="#d98586"/><rect x="491" y="79" width="10" height="4" fill="#b86669"/><rect x="491" y="83" width="4" height="5" fill="#b86669"/><rect x="498" y="83" width="4" height="5" fill="#b86669"/><rect x="522" y="65" width="12" height="12" fill="#5a463d"/><rect x="524" y="66" width="8" height="10" fill="#d98586"/><rect x="527" y="66" width="2" height="2" fill="#f3dfcf"/><rect x="518" y="60" width="4" height="9" fill="#d98586"/><rect x="534" y="60" width="4" height="9" fill="#d98586"/><rect x="523" y="77" width="10" height="4" fill="#b86669"/><rect x="523" y="81" width="4" height="5" fill="#b86669"/><rect x="530" y="81" width="4" height="5" fill="#b86669"/><rect x="554" y="67" width="12" height="12" fill="#5a463d"/><rect x="556" y="68" width="8" height="10" fill="#d98586"/><rect x="559" y="68" width="2" height="2" fill="#f3dfcf"/><rect x="550" y="62" width="4" height="9" fill="#d98586"/><rect x="566" y="62" width="4" height="9" fill="#d98586"/><rect x="555" y="79" width="10" height="4" fill="#b86669"/><rect x="555" y="83" width="4" height="5" fill="#b86669"/><rect x="562" y="83" width="4" height="5" fill="#b86669"/><rect x="586" y="64" width="12" height="12" fill="#5a463d"/><rect x="588" y="65" width="8" height="10" fill="#d98586"/><rect x="591" y="65" width="2" height="2" fill="#f3dfcf"/><rect x="582" y="59" width="4" height="9" fill="#d98586"/><rect x="598" y="59" width="4" height="9" fill="#d98586"/><rect x="587" y="76" width="10" height="4" fill="#b86669"/><rect x="587" y="80" width="4" height="5" fill="#b86669"/><rect x="594" y="80" width="4" height="5" fill="#b86669"/><rect x="10" y="115" width="12" height="12" fill="#5a463d"/><rect x="12" y="116" width="8" height="10" fill="#d98586"/><rect x="15" y="116" width="2" height="2" fill="#f3dfcf"/><rect x="7" y="117" width="3" height="8" fill="#d98586"/><rect x="22" y="117" width="3" height="8" fill="#d98586"/><rect x="11" y="127" width="10" height="4" fill="#b86669"/><rect x="11" y="131" width="4" height="5" fill="#b86669"/><rect x="18" y="131" width="4" height="5" fill="#b86669"/><rect x="42" y="116" width="12" height="12" fill="#5a463d"/><rect x="44" y="117" width="8" height="10" fill="#d98586"/><rect x="47" y="117" width="2" height="2" fill="#f3dfcf"/><rect x="39" y="118" width="3" height="8" fill="#d98586"/><rect x="54" y="118" width="3" height="8" fill="#d98586"/><rect x="43" y="128" width="10" height="4" fill="#b86669"/><rect x="43" y="132" width="4" height="5" fill="#b86669"/><rect x="50" y="132" width="4" height="5" fill="#b86669"/><rect x="74" y="115" width="12" height="12" fill="#5a463d"/><rect x="76" y="116" width="8" height="10" fill="#d98586"/><rect x="79" y="116" width="2" height="2" fill="#f3dfcf"/><rect x="71" y="117" width="3" height="8" fill="#d98586"/><rect x="86" y="117" width="3" height="8" fill="#d98586"/><rect x="75" y="127" width="10" height="4" fill="#b86669"/><rect x="74" y="131" width="4" height="5" fill="#b86669"/><rect x="83" y="131" width="4" height="5" fill="#b86669"/><rect x="106" y="116" width="12" height="12" fill="#5a463d"/><rect x="108" y="117" width="8" height="10" fill="#d98586"/><rect x="111" y="117" width="2" height="2" fill="#f3dfcf"/><rect x="103" y="118" width="3" height="8" fill="#d98586"/><rect x="118" y="118" width="3" height="8" fill="#d98586"/><rect x="107" y="128" width="10" height="4" fill="#b86669"/><rect x="107" y="132" width="4" height="5" fill="#b86669"/><rect x="114" y="132" width="4" height="5" fill="#b86669"/><rect x="138" y="115" width="12" height="12" fill="#5a463d"/><rect x="140" y="116" width="8" height="10" fill="#d98586"/><rect x="143" y="116" width="2" height="2" fill="#f3dfcf"/><rect x="135" y="117" width="3" height="8" fill="#d98586"/><rect x="150" y="117" width="3" height="8" fill="#d98586"/><rect x="139" y="127" width="10" height="4" fill="#b86669"/><rect x="140" y="131" width="4" height="5" fill="#b86669"/><rect x="145" y="131" width="4" height="5" fill="#b86669"/><rect x="170" y="116" width="12" height="12" fill="#5a463d"/><rect x="172" y="117" width="8" height="10" fill="#d98586"/><rect x="175" y="117" width="2" height="2" fill="#f3dfcf"/><rect x="167" y="118" width="3" height="8" fill="#d98586"/><rect x="182" y="118" width="3" height="8" fill="#d98586"/><rect x="171" y="128" width="10" height="4" fill="#b86669"/><rect x="171" y="132" width="4" height="5" fill="#b86669"/><rect x="178" y="132" width="4" height="5" fill="#b86669"/><rect x="202" y="120" width="12" height="12" fill="#5a463d"/><rect x="204" y="121" width="8" height="10" fill="#d98586"/><rect x="207" y="121" width="2" height="2" fill="#f3dfcf"/><rect x="199" y="122" width="3" height="8" fill="#d98586"/><rect x="214" y="122" width="3" height="8" fill="#d98586"/><rect x="202" y="130" width="12" height="5" fill="#b86669"/><rect x="199" y="133" width="7" height="3" fill="#b86669"/><rect x="210" y="133" width="7" height="3" fill="#b86669"/><rect x="234" y="121" width="12" height="12" fill="#5a463d"/><rect x="236" y="122" width="8" height="10" fill="#d98586"/><rect x="239" y="122" width="2" height="2" fill="#f3dfcf"/><rect x="231" y="123" width="3" height="8" fill="#d98586"/><rect x="246" y="123" width="3" height="8" fill="#d98586"/><rect x="234" y="130" width="12" height="5" fill="#b86669"/><rect x="231" y="133" width="7" height="3" fill="#b86669"/><rect x="242" y="133" width="7" height="3" fill="#b86669"/><rect x="266" y="115" width="12" height="12" fill="#5a463d"/><rect x="268" y="116" width="8" height="10" fill="#d98586"/><rect x="271" y="116" width="2" height="2" fill="#f3dfcf"/><rect x="262" y="117" width="4" height="7" fill="#d98586"/><rect x="278" y="116" width="4" height="7" fill="#d98586"/><rect x="280" y="110" width="3" height="7" fill="#b86669"/><rect x="267" y="127" width="10" height="4" fill="#b86669"/><rect x="267" y="131" width="4" height="5" fill="#b86669"/><rect x="274" y="131" width="4" height="5" fill="#b86669"/><rect x="298" y="116" width="12" height="12" fill="#5a463d"/><rect x="300" y="117" width="8" height="10" fill="#d98586"/><rect x="303" y="117" width="2" height="2" fill="#f3dfcf"/><rect x="294" y="118" width="4" height="7" fill="#d98586"/><rect x="310" y="117" width="4" height="7" fill="#d98586"/><rect x="312" y="111" width="3" height="7" fill="#b86669"/><rect x="299" y="128" width="10" height="4" fill="#b86669"/><rect x="299" y="132" width="4" height="5" fill="#b86669"/><rect x="306" y="132" width="4" height="5" fill="#b86669"/><rect x="330" y="115" width="12" height="12" fill="#5a463d"/><rect x="332" y="116" width="8" height="10" fill="#d98586"/><rect x="335" y="116" width="2" height="2" fill="#f3dfcf"/><rect x="326" y="117" width="4" height="7" fill="#d98586"/><rect x="342" y="116" width="4" height="7" fill="#d98586"/><rect x="344" y="110" width="3" height="7" fill="#b86669"/><rect x="331" y="127" width="10" height="4" fill="#b86669"/><rect x="331" y="131" width="4" height="5" fill="#b86669"/><rect x="338" y="131" width="4" height="5" fill="#b86669"/><rect x="362" y="116" width="12" height="12" fill="#5a463d"/><rect x="364" y="117" width="8" height="10" fill="#d98586"/><rect x="367" y="117" width="2" height="2" fill="#f3dfcf"/><rect x="358" y="118" width="4" height="7" fill="#d98586"/><rect x="374" y="117" width="4" height="7" fill="#d98586"/><rect x="376" y="111" width="3" height="7" fill="#b86669"/><rect x="363" y="128" width="10" height="4" fill="#b86669"/><rect x="363" y="132" width="4" height="5" fill="#b86669"/><rect x="370" y="132" width="4" height="5" fill="#b86669"/><rect x="394" y="115" width="12" height="12" fill="#5a463d"/><rect x="396" y="116" width="8" height="10" fill="#d98586"/><rect x="399" y="116" width="2" height="2" fill="#f3dfcf"/><rect x="392" y="118" width="6" height="4" fill="#d98586"/><rect x="402" y="118" width="6" height="4" fill="#d98586"/><rect x="395" y="127" width="10" height="4" fill="#b86669"/><rect x="395" y="131" width="4" height="5" fill="#b86669"/><rect x="402" y="131" width="4" height="5" fill="#b86669"/><rect x="426" y="116" width="12" height="12" fill="#5a463d"/><rect x="428" y="117" width="8" height="10" fill="#d98586"/><rect x="431" y="117" width="2" height="2" fill="#f3dfcf"/><rect x="424" y="119" width="6" height="4" fill="#d98586"/><rect x="434" y="119" width="6" height="4" fill="#d98586"/><rect x="427" y="128" width="10" height="4" fill="#b86669"/><rect x="427" y="132" width="4" height="5" fill="#b86669"/><rect x="434" y="132" width="4" height="5" fill="#b86669"/><rect x="458" y="115" width="12" height="12" fill="#5a463d"/><rect x="460" y="116" width="8" height="10" fill="#d98586"/><rect x="463" y="116" width="2" height="2" fill="#f3dfcf"/><rect x="456" y="118" width="6" height="4" fill="#d98586"/><rect x="466" y="118" width="6" height="4" fill="#d98586"/><rect x="459" y="127" width="10" height="4" fill="#b86669"/><rect x="459" y="131" width="4" height="5" fill="#b86669"/><rect x="466" y="131" width="4" height="5" fill="#b86669"/><rect x="490" y="115" width="12" height="12" fill="#5a463d"/><rect x="492" y="116" width="8" height="10" fill="#d98586"/><rect x="495" y="116" width="2" height="2" fill="#f3dfcf"/><rect x="486" y="110" width="4" height="9" fill="#d98586"/><rect x="502" y="110" width="4" height="9" fill="#d98586"/><rect x="491" y="127" width="10" height="4" fill="#b86669"/><rect x="491" y="131" width="4" height="5" fill="#b86669"/><rect x="498" y="131" width="4" height="5" fill="#b86669"/><rect x="522" y="113" width="12" height="12" fill="#5a463d"/><rect x="524" y="114" width="8" height="10" fill="#d98586"/><rect x="527" y="114" width="2" height="2" fill="#f3dfcf"/><rect x="518" y="108" width="4" height="9" fill="#d98586"/><rect x="534" y="108" width="4" height="9" fill="#d98586"/><rect x="523" y="125" width="10" height="4" fill="#b86669"/><rect x="523" y="129" width="4" height="5" fill="#b86669"/><rect x="530" y="129" width="4" height="5" fill="#b86669"/><rect x="554" y="115" width="12" height="12" fill="#5a463d"/><rect x="556" y="116" width="8" height="10" fill="#d98586"/><rect x="559" y="116" width="2" height="2" fill="#f3dfcf"/><rect x="550" y="110" width="4" height="9" fill="#d98586"/><rect x="566" y="110" width="4" height="9" fill="#d98586"/><rect x="555" y="127" width="10" height="4" fill="#b86669"/><rect x="555" y="131" width="4" height="5" fill="#b86669"/><rect x="562" y="131" width="4" height="5" fill="#b86669"/><rect x="586" y="112" width="12" height="12" fill="#5a463d"/><rect x="588" y="113" width="8" height="10" fill="#d98586"/><rect x="591" y="113" width="2" height="2" fill="#f3dfcf"/><rect x="582" y="107" width="4" height="9" fill="#d98586"/><rect x="598" y="107" width="4" height="9" fill="#d98586"/><rect x="587" y="124" width="10" height="4" fill="#b86669"/><rect x="587" y="128" width="4" height="5" fill="#b86669"/><rect x="594" y="128" width="4" height="5" fill="#b86669"/><rect x="10" y="163" width="12" height="12" fill="#5a463d"/><rect x="12" y="164" width="8" height="10" fill="#d98586"/><rect x="7" y="165" width="3" height="8" fill="#d98586"/><rect x="22" y="165" width="3" height="8" fill="#d98586"/><rect x="11" y="175" width="10" height="4" fill="#b86669"/><rect x="11" y="179" width="4" height="5" fill="#b86669"/><rect x="18" y="179" width="4" height="5" fill="#b86669"/><rect x="42" y="164" width="12" height="12" fill="#5a463d"/><rect x="44" y="165" width="8" height="10" fill="#d98586"/><rect x="39" y="166" width="3" height="8" fill="#d98586"/><rect x="54" y="166" width="3" height="8" fill="#d98586"/><rect x="43" y="176" width="10" height="4" fill="#b86669"/><rect x="43" y="180" width="4" height="5" fill="#b86669"/><rect x="50" y="180" width="4" height="5" fill="#b86669"/><rect x="74" y="163" width="12" height="12" fill="#5a463d"/><rect x="76" y="164" width="8" height="10" fill="#d98586"/><rect x="71" y="165" width="3" height="8" fill="#d98586"/><rect x="86" y="165" width="3" height="8" fill="#d98586"/><rect x="75" y="175" width="10" height="4" fill="#b86669"/><rect x="74" y="179" width="4" height="5" fill="#b86669"/><rect x="83" y="179" width="4" height="5" fill="#b86669"/><rect x="106" y="164" width="12" height="12" fill="#5a463d"/><rect x="108" y="165" width="8" height="10" fill="#d98586"/><rect x="103" y="166" width="3" height="8" fill="#d98586"/><rect x="118" y="166" width="3" height="8" fill="#d98586"/><rect x="107" y="176" width="10" height="4" fill="#b86669"/><rect x="107" y="180" width="4" height="5" fill="#b86669"/><rect x="114" y="180" width="4" height="5" fill="#b86669"/><rect x="138" y="163" width="12" height="12" fill="#5a463d"/><rect x="140" y="164" width="8" height="10" fill="#d98586"/><rect x="135" y="165" width="3" height="8" fill="#d98586"/><rect x="150" y="165" width="3" height="8" fill="#d98586"/><rect x="139" y="175" width="10" height="4" fill="#b86669"/><rect x="140" y="179" width="4" height="5" fill="#b86669"/><rect x="145" y="179" width="4" height="5" fill="#b86669"/><rect x="170" y="164" width="12" height="12" fill="#5a463d"/><rect x="172" y="165" width="8" height="10" fill="#d98586"/><rect x="167" y="166" width="3" height="8" fill="#d98586"/><rect x="182" y="166" width="3" height="8" fill="#d98586"/><rect x="171" y="176" width="10" height="4" fill="#b86669"/><rect x="171" y="180" width="4" height="5" fill="#b86669"/><rect x="178" y="180" width="4" height="5" fill="#b86669"/><rect x="202" y="168" width="12" height="12" fill="#5a463d"/><rect x="204" y="169" width="8" height="10" fill="#d98586"/><rect x="199" y="170" width="3" height="8" fill="#d98586"/><rect x="214" y="170" width="3" height="8" fill="#d98586"/><rect x="202" y="178" width="12" height="5" fill="#b86669"/><rect x="199" y="181" width="7" height="3" fill="#b86669"/><rect x="210" y="181" width="7" height="3" fill="#b86669"/><rect x="234" y="169" width="12" height="12" fill="#5a463d"/><rect x="236" y="170" width="8" height="10" fill="#d98586"/><rect x="231" y="171" width="3" height="8" fill="#d98586"/><rect x="246" y="171" width="3" height="8" fill="#d98586"/><rect x="234" y="178" width="12" height="5" fill="#b86669"/><rect x="231" y="181" width="7" height="3" fill="#b86669"/><rect x="242" y="181" width="7" height="3" fill="#b86669"/><rect x="266" y="163" width="12" height="12" fill="#5a463d"/><rect x="268" y="164" width="8" height="10" fill="#d98586"/><rect x="262" y="165" width="4" height="7" fill="#d98586"/><rect x="278" y="164" width="4" height="7" fill="#d98586"/><rect x="280" y="158" width="3" height="7" fill="#b86669"/><rect x="267" y="175" width="10" height="4" fill="#b86669"/><rect x="267" y="179" width="4" height="5" fill="#b86669"/><rect x="274" y="179" width="4" height="5" fill="#b86669"/><rect x="298" y="164" width="12" height="12" fill="#5a463d"/><rect x="300" y="165" width="8" height="10" fill="#d98586"/><rect x="294" y="166" width="4" height="7" fill="#d98586"/><rect x="310" y="165" width="4" height="7" fill="#d98586"/><rect x="312" y="159" width="3" height="7" fill="#b86669"/><rect x="299" y="176" width="10" height="4" fill="#b86669"/><rect x="299" y="180" width="4" height="5" fill="#b86669"/><rect x="306" y="180" width="4" height="5" fill="#b86669"/><rect x="330" y="163" width="12" height="12" fill="#5a463d"/><rect x="332" y="164" width="8" height="10" fill="#d98586"/><rect x="326" y="165" width="4" height="7" fill="#d98586"/><rect x="342" y="164" width="4" height="7" fill="#d98586"/><rect x="344" y="158" width="3" height="7" fill="#b86669"/><rect x="331" y="175" width="10" height="4" fill="#b86669"/><rect x="331" y="179" width="4" height="5" fill="#b86669"/><rect x="338" y="179" width="4" height="5" fill="#b86669"/><rect x="362" y="164" width="12" height="12" fill="#5a463d"/><rect x="364" y="165" width="8" height="10" fill="#d98586"/><rect x="358" y="166" width="4" height="7" fill="#d98586"/><rect x="374" y="165" width="4" height="7" fill="#d98586"/><rect x="376" y="159" width="3" height="7" fill="#b86669"/><rect x="363" y="176" width="10" height="4" fill="#b86669"/><rect x="363" y="180" width="4" height="5" fill="#b86669"/><rect x="370" y="180" width="4" height="5" fill="#b86669"/><rect x="394" y="163" width="12" height="12" fill="#5a463d"/><rect x="396" y="164" width="8" height="10" fill="#d98586"/><rect x="392" y="166" width="6" height="4" fill="#d98586"/><rect x="402" y="166" width="6" height="4" fill="#d98586"/><rect x="395" y="175" width="10" height="4" fill="#b86669"/><rect x="395" y="179" width="4" height="5" fill="#b86669"/><rect x="402" y="179" width="4" height="5" fill="#b86669"/><rect x="426" y="164" width="12" height="12" fill="#5a463d"/><rect x="428" y="165" width="8" height="10" fill="#d98586"/><rect x="424" y="167" width="6" height="4" fill="#d98586"/><rect x="434" y="167" width="6" height="4" fill="#d98586"/><rect x="427" y="176" width="10" height="4" fill="#b86669"/><rect x="427" y="180" width="4" height="5" fill="#b86669"/><rect x="434" y="180" width="4" height="5" fill="#b86669"/><rect x="458" y="163" width="12" height="12" fill="#5a463d"/><rect x="460" y="164" width="8" height="10" fill="#d98586"/><rect x="456" y="166" width="6" height="4" fill="#d98586"/><rect x="466" y="166" width="6" height="4" fill="#d98586"/><rect x="459" y="175" width="10" height="4" fill="#b86669"/><rect x="459" y="179" width="4" height="5" fill="#b86669"/><rect x="466" y="179" width="4" height="5" fill="#b86669"/><rect x="490" y="163" width="12" height="12" fill="#5a463d"/><rect x="492" y="164" width="8" height="10" fill="#d98586"/><rect x="486" y="158" width="4" height="9" fill="#d98586"/><rect x="502" y="158" width="4" height="9" fill="#d98586"/><rect x="491" y="175" width="10" height="4" fill="#b86669"/><rect x="491" y="179" width="4" height="5" fill="#b86669"/><rect x="498" y="179" width="4" height="5" fill="#b86669"/><rect x="522" y="161" width="12" height="12" fill="#5a463d"/><rect x="524" y="162" width="8" height="10" fill="#d98586"/><rect x="518" y="156" width="4" height="9" fill="#d98586"/><rect x="534" y="156" width="4" height="9" fill="#d98586"/><rect x="523" y="173" width="10" height="4" fill="#b86669"/><rect x="523" y="177" width="4" height="5" fill="#b86669"/><rect x="530" y="177" width="4" height="5" fill="#b86669"/><rect x="554" y="163" width="12" height="12" fill="#5a463d"/><rect x="556" y="164" width="8" height="10" fill="#d98586"/><rect x="550" y="158" width="4" height="9" fill="#d98586"/><rect x="566" y="158" width="4" height="9" fill="#d98586"/><rect x="555" y="175" width="10" height="4" fill="#b86669"/><rect x="555" y="179" width="4" height="5" fill="#b86669"/><rect x="562" y="179" width="4" height="5" fill="#b86669"/><rect x="586" y="160" width="12" height="12" fill="#5a463d"/><rect x="588" y="161" width="8" height="10" fill="#d98586"/><rect x="582" y="155" width="4" height="9" fill="#d98586"/><rect x="598" y="155" width="4" height="9" fill="#d98586"/><rect x="587" y="172" width="10" height="4" fill="#b86669"/><rect x="587" y="176" width="4" height="5" fill="#b86669"/><rect x="594" y="176" width="4" height="5" fill="#b86669"/></svg>